<?xml version="1.0" encoding="UTF-8" standalone="no"?>
<!DOCTYPE svg PUBLIC "-//W3C//DTD SVG 1.1//EN" "http://www.w3.org/Graphics/SVG/1.1/DTD/svg11.dtd">
<svg width="100%" height="100%" viewBox="0 0 600 220" version="1.1" xmlns="http://www.w3.org/2000/svg" xmlns:xlink="http://www.w3.org/1999/xlink" xml:space="preserve" xmlns:serif="http://www.serif.com/" style="fill-rule:evenodd;clip-rule:evenodd;">
    <g transform="matrix(1,0,0,1,-194.308,98.7226)">
        <g id="Name">
            <text x="207.138px" y="105.168px" style="font-family:'Phosphate-Inline', 'Phosphate';font-size:130px;">F<tspan x="258.228px 339.608px 393.038px 465.058px 561.258px " y="105.168px 105.168px 105.168px 105.168px 105.168px ">ALCON</tspan></text>
        </g>
    </g>
    <g id="Logo" transform="matrix(1,0,0,1,709.001,7.14337)">
        <g transform="matrix(1,0,0,1,-292.6,1.20888)">
            <path id="afwWrtpzn" d="M31.754,72.307L65.845,74.515L52.43,152.577L83.228,138.125L71.84,178.489L108.947,149.621L97.8,196.041L175.838,113.383L137.61,16.273L65.845,2.762L2.415,42.281L19.714,89.075L31.754,72.307Z" style="fill:rgb(86,86,86);fill-rule:nonzero;"/>
            <path id="afwWrtpzn1" serif:id="afwWrtpzn" d="M31.754,72.307L65.845,74.515L52.43,152.577L83.228,138.125L71.84,178.489L108.947,149.621L97.8,196.041L175.838,113.383L137.61,16.273L65.845,2.762L2.415,42.281L19.714,89.075L31.754,72.307Z" style="fill-opacity:0;fill-rule:nonzero;stroke:black;stroke-width:4.83px;"/>
        </g>
        <g transform="matrix(1,0,0,1,-292.6,1.20888)">
            <path id="f9Ro2kNLjt" d="M44.251,24.524L73.806,49.206L73.806,67.536L119.535,105.549L108.839,126.334L130.878,108.304L130.878,136.798L166.477,110.524L132.229,22.859L66.665,10.591L44.251,24.524Z" style="fill:rgb(102,102,102);fill-rule:nonzero;"/>
        </g>
        <g id="f9Ro2kNLjt1" serif:id="f9Ro2kNLjt" transform="matrix(1,0,0,1,-292.6,1.20888)">
            <path d="M107.112,106.033L73.806,75.082L67.438,113.958L107.112,106.033Z" style="fill:url(#_Linear1);fill-rule:nonzero;"/>
        </g>
        <g transform="matrix(1,0,0,1,-292.6,1.20888)">
            <path id="a2YeZXbxK" d="M74.965,38.385L94.531,27.962L73.939,22.859L65.06,28.963L74.965,38.385Z" style="fill:rgb(243,242,182);fill-rule:nonzero;stroke:black;stroke-width:4.83px;"/>
        </g>
        <g transform="matrix(1,0,0,1,-292.6,1.20888)">
            <path id="bck4zTqCc" d="M31.138,70.92L66.327,70.003L66.665,53.621L34.89,25.682L4.551,43.331L20.728,83.297L31.138,70.92Z" style="fill:url(#_Linear2);fill-rule:nonzero;"/>
            <path id="bck4zTqCc1" serif:id="bck4zTqCc" d="M31.138,70.92L66.327,70.003L66.665,53.621L34.89,25.682L4.551,43.331L20.728,83.297L31.138,70.92Z" style="fill-opacity:0;fill-rule:nonzero;stroke:black;stroke-width:4.83px;"/>
        </g>
        <g transform="matrix(1,0,0,1,-292.6,1.20888)">
            <g opacity="0.5">
                <path id="c8tH4sZd3" d="M38.69,39.748L29.642,38.747L34.058,35.779L38.69,39.748Z" style="fill-rule:nonzero;"/>
                <path id="c8tH4sZd31" serif:id="c8tH4sZd3" d="M38.69,39.748L29.642,38.747L34.058,35.779L38.69,39.748Z" style="fill-opacity:0;fill-rule:nonzero;stroke:black;stroke-width:1.21px;"/>
            </g>
        </g>
        <g id="b4jPLXq2Q" transform="matrix(1,0,0,1,-292.6,1.20888)">
            <path d="M66.665,54.489L30.656,70.678" style="fill-opacity:0;fill-rule:nonzero;stroke:black;stroke-width:4.83px;"/>
        </g>
        <g id="biuXOi8NB" transform="matrix(1,0,0,1,-292.6,1.20888)">
            <path d="M79.452,29.193L71.78,33.21L68.149,26.888L79.452,29.193Z" style="fill-rule:nonzero;"/>
        </g>
        <g id="biuXOi8NB1" serif:id="biuXOi8NB" transform="matrix(1,0,0,1,-292.6,1.20888)">
            <path d="M79.452,29.193L71.78,33.21L68.149,26.888L79.452,29.193Z" style="fill-opacity:0;fill-rule:nonzero;stroke:black;stroke-width:1.21px;"/>
        </g>
        <g id="aBf8t1uYg" transform="matrix(1,0,0,1,-292.6,1.20888)">
            <path d="M90.948,128.715L82.818,161.588L116.016,138.209L109.924,173.446L145.161,133.456L125.51,147.015L125.51,121.26L99.079,140.863L108.244,113.312L65.81,121.26L62.817,138.209L90.948,128.715Z" style="fill:url(#_Linear3);fill-rule:nonzero;"/>
        </g>
    </g>
    <defs>
        <linearGradient id="_Linear1" x1="0" y1="0" x2="1" y2="0" gradientUnits="userSpaceOnUse" gradientTransform="matrix(8.28147,40.3898,-40.3898,8.28147,75.559,73.5339)"><stop offset="0" style="stop-color:rgb(219,221,216);stop-opacity:1"/><stop offset="1" style="stop-color:rgb(157,136,111);stop-opacity:1"/></linearGradient>
        <linearGradient id="_Linear2" x1="0" y1="0" x2="1" y2="0" gradientUnits="userSpaceOnUse" gradientTransform="matrix(-40.0703,32.5112,-32.5112,-40.0703,56.4664,35.6672)"><stop offset="0" style="stop-color:rgb(243,242,182);stop-opacity:1"/><stop offset="0.19" style="stop-color:rgb(178,177,142);stop-opacity:1"/><stop offset="0.4" style="stop-color:rgb(114,114,103);stop-opacity:1"/><stop offset="1" style="stop-color:rgb(86,86,86);stop-opacity:1"/></linearGradient>
        <linearGradient id="_Linear3" x1="0" y1="0" x2="1" y2="0" gradientUnits="userSpaceOnUse" gradientTransform="matrix(28.5157,44.2085,-44.2085,28.5157,93.954,114.461)"><stop offset="0" style="stop-color:rgb(159,139,114);stop-opacity:1"/><stop offset="1" style="stop-color:rgb(138,105,90);stop-opacity:1"/></linearGradient>
    </defs>
</svg>
