<?xml version="1.0" encoding="UTF-8" standalone="no"?>
<!DOCTYPE svg PUBLIC "-//W3C//DTD SVG 1.1//EN" "http://www.w3.org/Graphics/SVG/1.1/DTD/svg11.dtd">
<svg width="100%" height="100%" viewBox="0 0 600 220" version="1.1" xmlns="http://www.w3.org/2000/svg" xmlns:xlink="http://www.w3.org/1999/xlink" xml:space="preserve" xmlns:serif="http://www.serif.com/" style="fill-rule:evenodd;clip-rule:evenodd;">
    <g id="Name" transform="matrix(1,0,-0.176327,1,237.874,11.0473)">
        <g transform="matrix(12.3597,0,0,0.991236,2645.68,0.928996)">
            <g opacity="0.5">
                <g id="a2YeZXbxK" transform="matrix(-1.71632,0,0,0.386532,-68.0238,97.1636)">
                    <path d="M73.939,38.385L94.531,27.962L73.939,22.859L73.939,38.385Z" style="fill:rgb(86,86,86);fill-rule:nonzero;"/>
                </g>
                <g id="a2YeZXbxK1" serif:id="a2YeZXbxK" transform="matrix(-1.71632,0,0,0.386532,-68.0238,107.164)">
                    <path d="M73.939,38.385L94.531,27.962L73.939,22.859L73.939,38.385Z" style="fill:rgb(86,86,86);fill-rule:nonzero;"/>
                </g>
                <g id="a2YeZXbxK2" serif:id="a2YeZXbxK" transform="matrix(-1.71632,0,0,0.386532,-68.0238,117.164)">
                    <path d="M73.939,38.385L94.531,27.962L73.939,22.859L73.939,38.385Z" style="fill:rgb(86,86,86);fill-rule:nonzero;"/>
                </g>
                <g id="a2YeZXbxK3" serif:id="a2YeZXbxK" transform="matrix(-1.71632,0,0,0.386532,-68.0238,127.164)">
                    <path d="M73.939,38.385L94.531,27.962L73.939,22.859L73.939,38.385Z" style="fill:rgb(86,86,86);fill-rule:nonzero;"/>
                </g>
                <g id="a2YeZXbxK4" serif:id="a2YeZXbxK" transform="matrix(-1.71632,0,0,0.386532,-68.0238,137.164)">
                    <path d="M73.939,38.385L94.531,27.962L73.939,22.859L73.939,38.385Z" style="fill:rgb(86,86,86);fill-rule:nonzero;"/>
                </g>
                <g id="a2YeZXbxK5" serif:id="a2YeZXbxK" transform="matrix(-1.71632,0,0,0.386532,-68.0238,147.164)">
                    <path d="M73.939,38.385L94.531,27.962L73.939,22.859L73.939,38.385Z" style="fill:rgb(86,86,86);fill-rule:nonzero;"/>
                </g>
                <g id="a2YeZXbxK6" serif:id="a2YeZXbxK" transform="matrix(-1.71632,0,0,0.386532,-68.0238,157.164)">
                    <path d="M73.939,38.385L94.531,27.962L73.939,22.859L73.939,38.385Z" style="fill:rgb(86,86,86);fill-rule:nonzero;"/>
                </g>
                <g id="a2YeZXbxK7" serif:id="a2YeZXbxK" transform="matrix(-1.71632,0,0,0.386532,-68.0238,167.164)">
                    <path d="M73.939,38.385L94.531,27.962L73.939,22.859L73.939,38.385Z" style="fill:rgb(86,86,86);fill-rule:nonzero;"/>
                </g>
                <g id="a2YeZXbxK8" serif:id="a2YeZXbxK" transform="matrix(-1.71632,0,0,0.386532,-68.0238,177.164)">
                    <path d="M73.939,38.385L94.531,27.962L73.939,22.859L73.939,38.385Z" style="fill:rgb(86,86,86);fill-rule:nonzero;"/>
                </g>
            </g>
        </g>
        <g transform="matrix(0.882487,0,0,0.533211,-371.748,95.1582)">
            <g transform="matrix(1.13316,0,0,1.87543,-27.5826,-16.1583)">
                <path d="M211.688,18.458L262.778,18.458L262.778,41.208L239.378,41.208L239.378,50.828L262.388,50.828L262.388,72.408L239.378,72.408L239.378,105.168L211.688,105.168L211.688,18.458Z" style="fill:white;fill-rule:nonzero;"/>
            </g>
            <g transform="matrix(1.13316,0,0,1.87543,-27.5826,-16.1583)">
                <path d="M288.518,18.458L309.318,18.458L342.208,105.168L314.908,105.168L312.048,97.368L285.788,97.368L282.928,105.168L255.628,105.168L288.518,18.458Z" style="fill:white;fill-rule:nonzero;"/>
            </g>
            <g transform="matrix(1.13316,0,0,1.87543,-27.5826,-16.1583)">
                <path d="M344.158,18.458L373.018,18.458L373.018,82.418L396.938,82.418L396.938,105.168L344.158,105.168L344.158,18.458Z" style="fill:white;fill-rule:nonzero;"/>
            </g>
            <g transform="matrix(1.13316,0,0,1.87543,-27.5826,-16.1583)">
                <path d="M395.638,61.878C395.638,54.944 396.851,48.683 399.278,43.093C401.705,37.503 404.998,32.714 409.158,28.728C413.318,24.741 418.171,21.686 423.718,19.563C429.265,17.439 435.158,16.378 441.398,16.378C446.338,16.378 450.736,16.854 454.593,17.808C458.45,18.761 461.765,19.844 464.538,21.058C467.745,22.444 470.518,23.961 472.858,25.608L459.208,49.658C457.821,48.618 456.305,47.621 454.658,46.668C453.185,45.974 451.43,45.303 449.393,44.653C447.356,44.003 445.038,43.678 442.438,43.678C439.751,43.678 437.281,44.154 435.028,45.108C432.775,46.061 430.803,47.361 429.113,49.008C427.423,50.654 426.101,52.583 425.148,54.793C424.195,57.003 423.718,59.364 423.718,61.878C423.718,64.391 424.216,66.753 425.213,68.963C426.21,71.173 427.575,73.101 429.308,74.748C431.041,76.394 433.078,77.694 435.418,78.648C437.758,79.601 440.315,80.078 443.088,80.078C445.861,80.078 448.331,79.731 450.498,79.038C452.665,78.344 454.485,77.564 455.958,76.698C457.691,75.744 459.208,74.618 460.508,73.318L474.158,97.368C471.818,99.274 469.045,100.964 465.838,102.438C463.065,103.651 459.728,104.778 455.828,105.818C451.928,106.858 447.465,107.378 442.438,107.378C435.678,107.378 429.438,106.273 423.718,104.063C417.998,101.853 413.058,98.754 408.898,94.768C404.738,90.781 401.488,85.993 399.148,80.403C396.808,74.813 395.638,68.638 395.638,61.878Z" style="fill:white;fill-rule:nonzero;"/>
            </g>
            <g transform="matrix(1.13316,0,0,1.87543,-27.5826,-16.1583)">
                <path d="M467.658,61.878C467.658,55.638 468.85,49.744 471.233,44.198C473.616,38.651 476.866,33.819 480.983,29.703C485.1,25.586 489.931,22.336 495.478,19.953C501.025,17.569 506.918,16.378 513.158,16.378C519.398,16.378 525.291,17.569 530.838,19.953C536.385,22.336 541.216,25.586 545.333,29.703C549.45,33.819 552.7,38.651 555.083,44.198C557.466,49.744 558.658,55.638 558.658,61.878C558.658,68.118 557.466,74.011 555.083,79.558C552.7,85.104 549.45,89.936 545.333,94.053C541.216,98.169 536.385,101.419 530.838,103.803C525.291,106.186 519.398,107.378 513.158,107.378C506.918,107.378 501.025,106.186 495.478,103.803C489.931,101.419 485.1,98.169 480.983,94.053C476.866,89.936 473.616,85.104 471.233,79.558C468.85,74.011 467.658,68.118 467.658,61.878ZM494.958,61.878C494.958,64.391 495.435,66.753 496.388,68.963C497.341,71.173 498.641,73.101 500.288,74.748C501.935,76.394 503.863,77.694 506.073,78.648C508.283,79.601 510.645,80.078 513.158,80.078C515.671,80.078 518.033,79.601 520.243,78.648C522.453,77.694 524.381,76.394 526.028,74.748C527.675,73.101 528.975,71.173 529.928,68.963C530.881,66.753 531.358,64.391 531.358,61.878C531.358,59.364 530.881,57.003 529.928,54.793C528.975,52.583 527.675,50.654 526.028,49.008C524.381,47.361 522.453,46.061 520.243,45.108C518.033,44.154 515.671,43.678 513.158,43.678C510.645,43.678 508.283,44.154 506.073,45.108C503.863,46.061 501.935,47.361 500.288,49.008C498.641,50.654 497.341,52.583 496.388,54.793C495.435,57.003 494.958,59.364 494.958,61.878Z" style="fill:white;fill-rule:nonzero;"/>
            </g>
            <g transform="matrix(1.13316,0,0,1.87543,-27.5826,-16.1583)">
                <path d="M565.808,18.458L588.558,18.458L612.478,51.868L612.478,18.458L639.648,18.458L639.648,105.168L616.768,105.168L592.978,71.888L592.978,105.168L565.808,105.168L565.808,18.458Z" style="fill:white;fill-rule:nonzero;"/>
            </g>
        </g>
        <g transform="matrix(1,0,0,1,-396.089,86.5424)">
            <text x="207.138px" y="105.168px" style="font-family:'Phosphate-Inline', 'Phosphate';font-size:130px;">F<tspan x="258.228px 339.608px 393.038px 465.058px 561.258px " y="105.168px 105.168px 105.168px 105.168px 105.168px ">ALCON</tspan></text>
        </g>
    </g>
    <g id="Logo" transform="matrix(1,0,0,1,709.001,7.14337)">
        <g transform="matrix(1,0,0,1,-292.6,1.20888)">
            <path id="afwWrtpzn" d="M31.754,72.307L65.845,74.515L52.43,152.577L83.228,138.125L71.84,178.489L108.947,149.621L97.8,196.041L175.838,113.383L137.61,16.273L65.845,2.762L2.415,42.281L19.714,89.075L31.754,72.307Z" style="fill:rgb(86,86,86);fill-rule:nonzero;"/>
            <path id="afwWrtpzn1" serif:id="afwWrtpzn" d="M31.754,72.307L65.845,74.515L52.43,152.577L83.228,138.125L71.84,178.489L108.947,149.621L97.8,196.041L175.838,113.383L137.61,16.273L65.845,2.762L2.415,42.281L19.714,89.075L31.754,72.307Z" style="fill-opacity:0;fill-rule:nonzero;stroke:black;stroke-width:4.83px;"/>
        </g>
        <g transform="matrix(1,0,0,1,-292.6,1.20888)">
            <path id="f9Ro2kNLjt" d="M44.251,24.524L73.806,49.206L73.806,67.536L119.535,105.549L108.839,126.334L130.878,108.304L130.878,136.798L166.477,110.524L132.229,22.859L66.665,10.591L44.251,24.524Z" style="fill:rgb(102,102,102);fill-rule:nonzero;"/>
        </g>
        <g id="f9Ro2kNLjt1" serif:id="f9Ro2kNLjt" transform="matrix(1,0,0,1,-292.6,1.20888)">
            <path d="M107.112,106.033L73.806,75.082L67.438,113.958L107.112,106.033Z" style="fill:url(#_Linear1);fill-rule:nonzero;"/>
        </g>
        <g transform="matrix(1,0,0,1,-292.6,1.20888)">
            <path id="a2YeZXbxK9" serif:id="a2YeZXbxK" d="M74.965,38.385L94.531,27.962L73.939,22.859L65.06,28.963L74.965,38.385Z" style="fill:rgb(243,242,182);fill-rule:nonzero;stroke:black;stroke-width:4.83px;"/>
        </g>
        <g transform="matrix(1,0,0,1,-292.6,1.20888)">
            <path id="bck4zTqCc" d="M31.138,70.92L66.327,70.003L66.665,53.621L34.89,25.682L4.551,43.331L20.728,83.297L31.138,70.92Z" style="fill:url(#_Linear2);fill-rule:nonzero;"/>
            <path id="bck4zTqCc1" serif:id="bck4zTqCc" d="M31.138,70.92L66.327,70.003L66.665,53.621L34.89,25.682L4.551,43.331L20.728,83.297L31.138,70.92Z" style="fill-opacity:0;fill-rule:nonzero;stroke:black;stroke-width:4.83px;"/>
        </g>
        <g transform="matrix(1,0,0,1,-292.6,1.20888)">
            <g opacity="0.5">
                <path id="c8tH4sZd3" d="M38.69,39.748L29.642,38.747L34.058,35.779L38.69,39.748Z" style="fill-rule:nonzero;"/>
                <path id="c8tH4sZd31" serif:id="c8tH4sZd3" d="M38.69,39.748L29.642,38.747L34.058,35.779L38.69,39.748Z" style="fill-opacity:0;fill-rule:nonzero;stroke:black;stroke-width:1.21px;"/>
            </g>
        </g>
        <g id="b4jPLXq2Q" transform="matrix(1,0,0,1,-292.6,1.20888)">
            <path d="M66.665,54.489L30.656,70.678" style="fill-opacity:0;fill-rule:nonzero;stroke:black;stroke-width:4.83px;"/>
        </g>
        <g id="biuXOi8NB" transform="matrix(1,0,0,1,-292.6,1.20888)">
            <path d="M79.452,29.193L71.78,33.21L68.149,26.888L79.452,29.193Z" style="fill-rule:nonzero;"/>
        </g>
        <g id="biuXOi8NB1" serif:id="biuXOi8NB" transform="matrix(1,0,0,1,-292.6,1.20888)">
            <path d="M79.452,29.193L71.78,33.21L68.149,26.888L79.452,29.193Z" style="fill-opacity:0;fill-rule:nonzero;stroke:black;stroke-width:1.21px;"/>
        </g>
        <g id="aBf8t1uYg" transform="matrix(1,0,0,1,-292.6,1.20888)">
            <path d="M90.948,128.715L82.818,161.588L116.016,138.209L109.924,173.446L145.161,133.456L125.51,147.015L125.51,121.26L99.079,140.863L108.244,113.312L65.81,121.26L62.817,138.209L90.948,128.715Z" style="fill:url(#_Linear3);fill-rule:nonzero;"/>
        </g>
    </g>
    <defs>
        <linearGradient id="_Linear1" x1="0" y1="0" x2="1" y2="0" gradientUnits="userSpaceOnUse" gradientTransform="matrix(8.28147,40.3898,-40.3898,8.28147,75.559,73.5339)"><stop offset="0" style="stop-color:rgb(219,221,216);stop-opacity:1"/><stop offset="1" style="stop-color:rgb(157,136,111);stop-opacity:1"/></linearGradient>
        <linearGradient id="_Linear2" x1="0" y1="0" x2="1" y2="0" gradientUnits="userSpaceOnUse" gradientTransform="matrix(-40.0703,32.5112,-32.5112,-40.0703,56.4664,35.6672)"><stop offset="0" style="stop-color:rgb(243,242,182);stop-opacity:1"/><stop offset="0.19" style="stop-color:rgb(178,177,142);stop-opacity:1"/><stop offset="0.4" style="stop-color:rgb(114,114,103);stop-opacity:1"/><stop offset="1" style="stop-color:rgb(86,86,86);stop-opacity:1"/></linearGradient>
        <linearGradient id="_Linear3" x1="0" y1="0" x2="1" y2="0" gradientUnits="userSpaceOnUse" gradientTransform="matrix(28.5157,44.2085,-44.2085,28.5157,93.954,114.461)"><stop offset="0" style="stop-color:rgb(159,139,114);stop-opacity:1"/><stop offset="1" style="stop-color:rgb(138,105,90);stop-opacity:1"/></linearGradient>
    </defs>
</svg>
